<?xml version="1.0" standalone="no"?>
<!DOCTYPE svg PUBLIC "-//W3C//DTD SVG 20010904//EN"
 "http://www.w3.org/TR/2001/REC-SVG-20010904/DTD/svg10.dtd">
<svg version="1.0" xmlns="http://www.w3.org/2000/svg"
 width="512.000000pt" height="512.000000pt" viewBox="0 0 512.000000 512.000000"
 preserveAspectRatio="xMidYMid meet">

<g transform="translate(0.000000,512.000000) scale(0.100000,-0.100000)"
fill="#000000" stroke="none">
<path d="M104 4026 c-40 -18 -92 -82 -100 -123 -8 -42 139 -1114 171 -1244 36
-151 109 -292 205 -402 l41 -46 -92 -478 c-71 -369 -90 -488 -85 -518 10 -52
77 -121 129 -130 74 -14 153 20 188 80 11 18 52 206 101 463 l83 432 210 0
211 0 83 -432 c92 -479 95 -489 173 -527 72 -34 136 -25 192 27 33 32 56 80
56 120 0 21 -114 638 -145 783 -6 25 -4 26 56 33 73 7 115 29 146 75 46 68 42
149 -10 208 -56 63 -52 63 -515 63 -455 0 -467 1 -540 57 -19 14 -51 53 -73
86 -70 111 -83 175 -169 794 -45 329 -85 584 -93 600 -40 77 -143 113 -223 79z"/>
<path d="M4880 4024 c-43 -19 -68 -41 -87 -77 -8 -17 -48 -271 -94 -605 -85
-616 -97 -672 -165 -784 -19 -32 -51 -71 -72 -87 -71 -60 -84 -61 -544 -61
-463 0 -459 0 -515 -63 -52 -59 -56 -140 -10 -208 31 -46 73 -68 146 -75 60
-7 62 -8 56 -33 -31 -145 -145 -762 -145 -783 0 -69 67 -151 135 -164 75 -14
153 22 187 87 10 21 53 216 100 462 l82 427 211 0 210 0 83 -432 c49 -257 90
-445 101 -463 35 -60 114 -94 188 -80 52 9 119 78 129 130 5 31 -13 147 -85
518 l-92 478 41 46 c96 110 169 251 205 402 32 130 179 1202 171 1244 -3 18
-20 50 -38 71 -52 63 -125 82 -198 50z"/>
<path d="M1384 3321 c-125 -57 -131 -234 -11 -307 30 -18 58 -19 525 -22 l492
-3 0 -779 0 -780 -97 0 c-161 -1 -224 -45 -231 -165 -3 -50 0 -65 20 -94 31
-45 66 -70 114 -81 51 -12 677 -12 728 0 48 11 83 36 114 81 20 29 23 44 20
94 -7 120 -70 164 -230 165 l-98 0 0 780 0 780 473 0 c296 0 486 4 509 11 21
5 53 26 72 45 83 85 58 227 -48 275 -39 18 -90 19 -1176 19 -1086 0 -1137 -1
-1176 -19z"/>
</g>
</svg>
